<svg aria-hidden="true" style="position: absolute; width: 0; height: 0; overflow: hidden;" version="1.1" xmlns="http://www.w3.org/2000/svg" xmlns:xlink="http://www.w3.org/1999/xlink">
<defs>
<symbol id="icon-arrow" viewBox="0 0 32 32">
<path d="M1.185 14.815c-0.655 0-1.185 0.531-1.185 1.185s0.531 1.185 1.185 1.185v-2.37zM31.653 16.838c0.463-0.463 0.463-1.213 0-1.676l-7.543-7.542c-0.463-0.463-1.213-0.463-1.676 0s-0.463 1.213 0 1.676l6.704 6.704-6.704 6.704c-0.463 0.463-0.463 1.213 0 1.676s1.213 0.463 1.676 0l7.543-7.543zM1.185 17.185h29.63v-2.37h-29.63v2.37z"></path>
</symbol>
<symbol id="icon-instagram" viewBox="0 0 32 32">
<path d="M31.452 5.724c-0.291-2.729-2.447-4.885-5.176-5.176-6.844-0.73-13.709-0.73-20.553 0-2.729 0.291-4.885 2.447-5.176 5.176-0.73 6.844-0.73 13.709 0 20.553 0.291 2.729 2.447 4.885 5.176 5.176 6.844 0.73 13.709 0.73 20.553 0 2.729-0.291 4.884-2.447 5.176-5.176 0.73-6.844 0.73-13.708 0-20.553z"></path>
<path d="M29.712 6.881c-0.258-2.422-2.171-4.334-4.593-4.593-6.073-0.648-12.165-0.648-18.238 0-2.422 0.259-4.334 2.171-4.593 4.593-0.648 6.073-0.648 12.165 0 18.238 0.259 2.422 2.171 4.335 4.593 4.593 6.073 0.648 12.165 0.648 18.238 0 2.422-0.258 4.335-2.171 4.593-4.593 0.648-6.073 0.648-12.164 0-18.238z"></path>
<path d="M0.48 25.613c0.022 0.221 0.045 0.442 0.068 0.664 0.291 2.729 2.447 4.884 5.176 5.176 6.844 0.73 13.709 0.73 20.552 0 2.729-0.291 4.885-2.447 5.176-5.176 0.024-0.221 0.046-0.442 0.069-0.664h-31.041z"></path>
<path d="M31.452 26.276c0.393-3.678 0.574-7.361 0.544-11.044l-7.314-7.314c-0.914-1.043-2.249-1.694-3.817-1.751-3.225-0.116-6.461-0.11-9.687 0-2.679 0.092-4.553 1.893-5.033 4.54-0.085 0.467-0.136 0.941-0.202 1.411v7.759c0.037 0.252 0.091 0.502 0.108 0.755 0.107 1.61 0.769 2.989 1.828 3.922l7.443 7.443c3.653 0.026 7.306-0.156 10.954-0.545 2.729-0.291 4.884-2.447 5.176-5.176z"></path>
<path d="M31.452 26.276c-0.291 2.729-2.447 4.885-5.176 5.176-3.647 0.389-7.301 0.571-10.953 0.545l-7.432-7.432c0.862 0.754 1.985 1.213 3.288 1.262 3.225 0.121 6.461 0.118 9.686 0.002 2.917-0.106 5.028-2.264 5.119-5.181 0.097-3.097 0.097-6.202 0-9.3-0.042-1.346-0.514-2.53-1.297-3.426l7.31 7.31c0.029 3.682-0.152 7.366-0.545 11.044z"></path>
<path d="M19.776 12.535c-0.937-1.020-2.282-1.66-3.776-1.66-2.831 0-5.125 2.295-5.125 5.126 0 1.494 0.64 2.839 1.66 3.776l11.859 11.859c0.628-0.055 1.255-0.115 1.883-0.182 2.729-0.291 4.885-2.447 5.176-5.176 0.067-0.627 0.128-1.255 0.182-1.883l-11.859-11.859z"></path>
<path d="M31.938 19.447l-9.544-9.544c-0.223-0.292-0.573-0.482-0.969-0.482-0.673 0-1.22 0.546-1.22 1.22 0 0.396 0.19 0.747 0.482 0.969l11.080 11.080c0.075-1.081 0.132-2.162 0.171-3.243z"></path>
<path d="M5.943 12.119c0.067-0.471 0.117-0.944 0.202-1.411 0.48-2.647 2.354-4.447 5.033-4.54 3.226-0.111 6.461-0.117 9.687-0 2.916 0.105 5.028 2.264 5.119 5.181 0.097 3.097 0.097 6.202 0 9.3-0.091 2.917-2.202 5.076-5.119 5.181-3.225 0.116-6.462 0.119-9.687-0.002-2.916-0.11-4.933-2.274-5.128-5.195-0.017-0.253-0.071-0.503-0.108-0.755 0-2.586 0-5.173 0-7.759zM16.003 24.101c1.476 0 2.954 0.044 4.428-0.010 2.311-0.086 3.733-1.465 3.787-3.774 0.067-2.877 0.067-5.758 0-8.636-0.054-2.309-1.477-3.72-3.787-3.769-2.932-0.062-5.868-0.062-8.8 0-2.293 0.048-3.719 1.431-3.781 3.714-0.079 2.914-0.079 5.832 0 8.746 0.062 2.283 1.488 3.634 3.781 3.719 1.456 0.054 2.915 0.010 4.372 0.010z"></path>
<path d="M5.943 12.119c0.067-0.471 0.117-0.944 0.202-1.411 0.48-2.647 2.354-4.447 5.033-4.54 3.226-0.111 6.461-0.117 9.687-0 2.916 0.105 5.028 2.264 5.119 5.181 0.097 3.097 0.097 6.202 0 9.3-0.091 2.917-2.202 5.076-5.119 5.181-3.225 0.116-6.462 0.119-9.687-0.002-2.916-0.11-4.933-2.274-5.128-5.195-0.017-0.253-0.071-0.503-0.108-0.755 0-2.586 0-5.173 0-7.759zM16.003 24.101c1.476 0 2.954 0.044 4.428-0.010 2.311-0.086 3.733-1.465 3.787-3.774 0.067-2.877 0.067-5.758 0-8.636-0.054-2.309-1.477-3.72-3.787-3.769-2.932-0.062-5.868-0.062-8.8 0-2.293 0.048-3.719 1.431-3.781 3.714-0.079 2.914-0.079 5.832 0 8.746 0.062 2.283 1.488 3.634 3.781 3.719 1.456 0.054 2.915 0.010 4.372 0.010z"></path>
<path d="M16 10.875c-2.831 0-5.125 2.295-5.125 5.125s2.295 5.126 5.125 5.126c2.831 0 5.126-2.295 5.126-5.126s-2.295-5.125-5.126-5.125zM16 19.361c-1.856 0-3.361-1.505-3.361-3.361s1.505-3.361 3.361-3.361c1.856 0 3.361 1.505 3.361 3.361s-1.505 3.361-3.361 3.361z"></path>
<path d="M22.644 10.641c0 0.673-0.546 1.219-1.219 1.219s-1.22-0.546-1.22-1.219c0-0.674 0.546-1.22 1.22-1.22s1.219 0.546 1.219 1.22z"></path>
</symbol>
<symbol id="icon-phone" viewBox="0 0 32 32">
<path d="M4.657 0.003c-0.515 0.025-1.021 0.253-1.392 0.678l-2.595 2.969c0.004-0.009-0.010-0.008-0.084 0.101-0.039 0.056-0.070 0.118-0.090 0.184-1.056 3.502-0.348 7.354 1.376 11.018s4.475 7.17 7.633 10.047c3.158 2.877 6.721 5.128 10.119 6.244s6.692 1.102 9.133-0.742c0.027-0.020 0.052-0.043 0.075-0.068 0.064-0.067 0.066-0.075 0.056-0.065l0.010-0.013 2.582-2.956c0.742-0.849 0.682-2.184-0.134-2.956l-6.126-5.799c-0.816-0.772-2.098-0.711-2.84 0.138l-2.772 3.173c-2.25-0.678-4.173-1.828-6.023-3.58s-3.132-3.637-3.993-5.905l2.771-3.173c0.742-0.849 0.683-2.184-0.133-2.956l-6.126-5.8c-0.408-0.386-0.933-0.564-1.448-0.539l-0.001 0zM4.715 1.304c0.19-0.009 0.383 0.060 0.541 0.209l6.126 5.8c0.316 0.299 0.337 0.776 0.050 1.104l-3.063 3.504c-0.077 0.089-0.129 0.197-0.151 0.314s-0.013 0.239 0.027 0.351c0.93 2.641 2.429 4.807 4.493 6.761s4.275 3.304 6.889 4.018c0.111 0.030 0.228 0.028 0.339-0.005s0.21-0.099 0.287-0.188l3.064-3.505c0.287-0.328 0.744-0.35 1.060-0.051l6.127 5.8c0.316 0.299 0.336 0.775 0.049 1.103l-2.561 2.93c-2.003 1.497-4.826 1.581-7.986 0.542-3.173-1.043-6.617-3.202-9.666-5.98s-5.702-6.169-7.332-9.633c-1.614-3.429-2.199-6.895-1.312-9.95l2.502-2.862c0.143-0.164 0.33-0.252 0.52-0.261l0 0z"></path>
</symbol>
<symbol id="icon-facebook" viewBox="0 0 32 32">
<path d="M26.776 2.314h-21.551c-0.779 0-1.527 0.307-2.078 0.853s-0.861 1.287-0.861 2.060v21.363c0 0.773 0.31 1.514 0.861 2.060s1.299 0.853 2.078 0.853h8.403v-9.244h-3.857v-4.351h3.857v-3.316c0-3.772 2.265-5.856 5.735-5.856 1.662 0 3.399 0.294 3.399 0.294v3.702h-1.914c-1.886 0-2.475 1.16-2.475 2.351v2.825h4.211l-0.673 4.351h-3.538v9.244h8.403c0.779 0 1.527-0.307 2.078-0.853s0.861-1.287 0.861-2.060v-21.363c0-0.773-0.31-1.514-0.861-2.060s-1.299-0.853-2.078-0.853z"></path>
</symbol>
<symbol id="icon-campfire" viewBox="0 0 32 32">
<path d="M26.176 16.593c-0.284-0.635-0.675-1.261-1.247-1.983-1.442-1.813-1.882-5.857-1.887-5.896-0.020-0.194-0.156-0.354-0.337-0.412-0.186-0.058-0.386-0.005-0.518 0.141-1.721 1.925-0.997 4.897-0.606 6.085 0.108 0.325 0.225 0.708 0.308 1.096 0.636 3.137-0.592 4.558-0.88 4.844-0.279 0.078-0.469 0.039-0.645-0.15-0.606-0.664-0.807-2.841-0.523-5.678 0.059-0.577 0.044-1.096-0.039-1.581-0.598-3.486-2.791-5.722-3.349-6.507-1.535-2.269-1.692-6.046-1.696-6.080-0.005-0.179-0.108-0.339-0.269-0.417-0.156-0.078-0.347-0.068-0.494 0.034-2.562 1.741-2.342 5.935-1.985 8.276 0.083 0.543 0.244 1.096 0.523 1.794 0.992 2.497-0.196 5.721-0.205 5.75s-0.020 0.053-0.024 0.082c-0.152 0.795-0.406 1.27-0.689 1.27-0.029 0-0.059-0.005-0.093-0.015-0.347-0.073-0.528-0.441-0.533-0.761-0.020-4.136-4.17-5.527-4.214-5.542-0.186-0.058-0.391-0.005-0.518 0.145-0.132 0.15-0.156 0.359-0.068 0.533 0.049 0.102 0.205 0.548 0.098 2.124-0.093 1.416-0.352 2.817-0.768 4.16-0.988 3.219-0.831 6.269-0.821 6.415 0.759 8.257 12.635 9.704 19.683 5.052 0.772-0.509 1.403-1.091 1.868-1.731 2.601-3.588 1.071-8.461-0.068-11.050zM8.111 24.481c0.015 0.267-0.191 0.494-0.46 0.509h-0.029c-0.259 0-0.474-0.199-0.489-0.456-0.044-0.708-0.034-1.45 0.020-2.255 0.020-0.267 0.254-0.465 0.523-0.451 0.269 0.019 0.474 0.252 0.455 0.519-0.054 0.766-0.064 1.464-0.020 2.133zM8.351 20.186c-0.029 0.247-0.24 0.427-0.484 0.427-0.020 0-0.039 0-0.064-0.005-0.264-0.034-0.455-0.272-0.425-0.538l0.235-1.871c0.034-0.262 0.274-0.451 0.548-0.422 0.269 0.034 0.46 0.276 0.425 0.543l-0.235 1.867z"></path>
<path d="M22.868 6.633c-0.267-0.041-0.45-0.288-0.408-0.553 0.030-0.197 0.207-1.205 0.686-1.713 0.185-0.196 0.493-0.206 0.691-0.022s0.207 0.49 0.022 0.685c-0.203 0.215-0.376 0.829-0.433 1.197-0.041 0.262-0.287 0.445-0.558 0.405z"></path>
<path d="M5.045 9.048c-0.094-0.361-0.326-0.955-0.549-1.149-0.203-0.177-0.223-0.483-0.045-0.684s0.486-0.222 0.69-0.045c0.527 0.458 0.802 1.445 0.852 1.638 0.067 0.259-0.091 0.523-0.352 0.59-0.267 0.067-0.529-0.094-0.595-0.349z"></path>
</symbol>
<symbol id="icon-audio-book" viewBox="0 0 32 32">
<path d="M3.018 26.77h9.923c0.503 1.057 1.555 1.74 2.743 1.74h0.627c1.189 0 2.24-0.682 2.743-1.74h9.928c1.023 0 1.855-0.843 1.855-1.879v-18.010c0-1.036-0.832-1.879-1.855-1.879h-1.002v-0.839c0-0.691-0.555-1.253-1.236-1.253h-21.494c-0.682 0-1.236 0.562-1.236 1.253v0.839h-0.995c-1.023 0-1.855 0.843-1.855 1.879v18.010c0 1.036 0.832 1.879 1.855 1.879zM26.743 22.905h-10.125v-14.557c2.34 0.31 4.155 2.339 4.155 4.794v0.565l-0.147-0.033c-0.159-0.035-0.327-0.006-0.465 0.084s-0.236 0.231-0.271 0.393l-0.984 4.538c-0.073 0.337 0.138 0.671 0.471 0.745l2.127 0.475c0.11 0.024 0.222 0.036 0.333 0.036 0.748 0 1.385-0.518 1.548-1.262l0.569-2.624c0.188-0.862-0.351-1.719-1.204-1.911l-0.74-0.165v-0.841c0-3.147-2.367-5.744-5.391-6.060v-2.92h10.126l-0.001 18.743zM20.964 15.032l1.518 0.339c0.19 0.043 0.305 0.226 0.264 0.418l-0.569 2.624c-0.041 0.19-0.248 0.307-0.412 0.272l-1.52-0.34 0.719-3.313zM5.25 4.162h10.132v2.919c-3.027 0.313-5.397 2.912-5.397 6.061v0.841l-0.741 0.166c-0.413 0.093-0.765 0.342-0.992 0.702-0.228 0.361-0.302 0.79-0.211 1.207l0.568 2.621c0.154 0.734 0.805 1.266 1.549 1.266 0.112 0 0.223-0.012 0.337-0.037l2.118-0.474c0.333-0.075 0.543-0.408 0.47-0.745l-0.984-4.538c-0.035-0.162-0.133-0.304-0.271-0.393s-0.307-0.119-0.466-0.084l-0.141 0.032v-0.564c0-2.457 1.817-4.487 4.161-4.795v14.558h-10.132v-18.743zM11.025 15.033l0.72 3.313-1.512 0.338c-0.186 0.042-0.376-0.082-0.415-0.27l-0.569-2.627c-0.021-0.091-0.004-0.184 0.045-0.262s0.127-0.133 0.217-0.154l1.515-0.339zM2.4 6.881c0-0.345 0.277-0.626 0.618-0.626h0.995v16.65c0 0.691 0.555 1.253 1.236 1.253h21.494c0.682 0 1.236-0.562 1.236-1.253v-16.65h1.002c0.341 0 0.618 0.281 0.618 0.626v18.010c0 0.345-0.277 0.626-0.618 0.626h-10.349c-0.272 0-0.511 0.18-0.591 0.443-0.235 0.776-0.931 1.297-1.732 1.297h-0.627c-0.798 0-1.494-0.519-1.734-1.304-0.082-0.259-0.32-0.435-0.589-0.435h-10.342c-0.341 0-0.618-0.281-0.618-0.626v-18.010z"></path>
</symbol>
<symbol id="icon-female-student-1" viewBox="0 0 32 32">
<path d="M4.124 29.091c3.054 0 20.724 0 23.775 0 0.118-2.634-0.076-7.005-1.743-9.085l-0.060-0.075-3.643-1.777c0.079-0.259 0.118-0.497 0.134-0.671 0.018-0.209-0.012-0.406-0.089-0.585-0.601-1.397-1.873-2.132-2.572-2.446 0.213-0.417 0.351-0.865 0.417-1.323 0.396-0.108 0.714-0.413 0.819-0.82l0.425-1.678c0.075-0.296 0.028-0.603-0.134-0.864-0.070-0.113-0.16-0.207-0.261-0.288 1.199-2.646-0.809-5.14-0.918-5.272-2.175-2.284-4.921-1.857-5.067-1.832-3.964 0.807-5.494 3.758-4.63 7.221-0.256 0.275-0.363 0.659-0.268 1.035l0.427 1.68c0.104 0.404 0.42 0.708 0.813 0.817 0.121 0.838 0.487 1.596 1.023 2.207v1.331c-5.689 2.831-2.084 1.025-6.643 3.266-0.009 0.042-2.139 2.241-1.823 8.761l0.019 0.398zM27.073 28.255h-3.913v-1.597l2.588-5.756c1.297 2.091 1.345 6.083 1.325 7.353zM21.733 17.412c-0.151 1.685-1.102 1.176-1.689 2.474-0.462-0.493-0.601-1.085-0.477-1.719 0.224-1.163-0.506-1.508-0.326-2.73l0.027-0.028v-0.004c0.016-0.017 0.16-0.184 0.201-0.236 1.548 0.656 2.293 1.875 2.263 2.243zM13.428 16.087c0.719 0.484 1.586 0.771 2.519 0.771 0.879 0 1.713-0.248 2.429-0.706 0.099 0.961 0.486 1.153 0.349 1.86-0.026 0.131-0.040 0.261-0.048 0.388l-2.665 2.918-3.406-3.731 0.822-0.417v-1.082zM12.356 12.516v-1.618c0-0.596 0-2.959 0-2.843 0.415-0.745 0.98-1.286 1.683-1.61 1.882 1.035 4.048 2.579 5.501 4.132-0.001 1.979 0.006 1.984-0.008 2.147l-0.001 0.010c-0.113 1.797-1.634 3.286-3.584 3.286-1.896 0-3.47-1.446-3.584-3.304-0.006-0.067-0.007-0.133-0.007-0.201zM11.826 17.989l4.186 4.585 2.81-3.078c0.064 0.18 0.154 0.349 0.257 0.513l-3.068 3.728-4.575-5.559 0.389-0.189zM20.397 11.843v-1.292c0.038-0.042 0.357-0.398 0.32-0.356 0.018 0.654 0.090-0.118-0.32 1.648zM15.365 3.197c0.17 0.010 2.454-0.338 4.26 1.556 0.071 0.087 1.541 1.926 0.95 3.939-0.202-0.896-0.554-2.043-1.111-2.591l-0.609 0.589c0.55 0.541 0.911 2.188 1.048 3.042-2.521-2.563-5.774-4.186-5.818-4.213-0.163 0.099-1.539 0.353-2.539 2.24l-0.048 0.090v1.386c-0.043 0-0.169 0.002-0.126 0.001-0.635-2.979 0.581-5.346 3.992-6.040zM11.283 10.097l0.216 0.851v0.895l-0.36-1.414c-0.053-0.211 0.108-0.291 0.143-0.333zM10.653 18.561l5.359 6.512 3.626-4.406c0.394 0.343 0.584 0.392 1.42 0.809l-0.282-0.93c-0.072-0.236 0.212-0.615 0.383-0.789 0.382-0.201 0.7-0.488 0.939-0.843l2.958 1.443-2.753 6.123v1.772h-12.583v-1.772l-2.754-6.123 3.687-1.798zM6.275 20.903l2.588 5.755v1.597h-3.913c-0.020-1.27 0.029-5.26 1.325-7.351z"></path>
</symbol>
<symbol id="icon-union" viewBox="0 0 32 32">
<path d="M4.055 13.287v2.471c0 0.133 0.060 0.258 0.164 0.34 1.677 1.329 3.78 2.061 5.924 2.061 0.642 0 1.284-0.068 1.912-0.195 1.338 0.596 2.763 0.901 4.237 0.901 1.479 0 2.904-0.305 4.237-0.901 2.678 0.545 5.532-0.040 7.835-1.866 0.104-0.082 0.164-0.208 0.164-0.34v-2.471c0-0.363-0.179-0.693-0.498-0.896l-3.351-1.899c0.733-0.937 1.279-2.271 1.374-3.415 0.278-1.969-1.315-4.055-3.609-4.055-0.965 0-1.881 0.4-2.554 1.071-0.023 0.023-0.050 0.043-0.072 0.067-0.021 0.022-0.038 0.047-0.058 0.070-0.013 0.015-0.025 0.031-0.038 0.046-0.656-1.204-1.916-1.948-3.4-1.948-0.144 0-0.286 0.010-0.426 0.024-0.009-0.001-0.016-0.005-0.024-0.005-0.080 0-0.248 0.021-0.339 0.047-0.013 0.004-0.023 0.013-0.036 0.018-1.109 0.226-2.048 0.902-2.611 1.882-0.677-0.795-1.672-1.272-2.754-1.272-3.386 0-4.888 4.025-2.216 7.489l-3.382 1.891c-0.3 0.191-0.479 0.522-0.479 0.885zM20.52 17.013c-0.073 0.036-0.145 0.074-0.218 0.107l-0 0c-0.001 0-0.001 0.001-0.002 0.001-1.258 0.582-2.607 0.878-4.009 0.878-1.398 0-2.747-0.295-4.011-0.879-0.615-0.282-1.21-0.64-1.772-1.065v-2.505c0-0.085 0.041-0.161 0.089-0.193l3.935-2.203c0.49 0.419 1.115 0.726 1.763 0.726 0.624 0 1.299-0.312 1.778-0.736l3.888 2.199c0.072 0.046 0.113 0.122 0.113 0.207v2.504c-0.495 0.375-1.016 0.694-1.554 0.958zM27.588 13.133c0.051 0.032 0.080 0.088 0.080 0.154v2.258c-1.706 1.289-3.758 1.874-5.837 1.728 0.32-0.201 0.668-0.451 0.938-0.663 0.104-0.082 0.164-0.207 0.164-0.341v-2.718c0-0.38-0.189-0.729-0.529-0.948l-2.065-1.169 0.502-0.28c0.609 0.5 1.132 0.649 1.602 0.649 0.574 0 1.178-0.284 1.627-0.662l3.518 1.993zM22.444 3.888c1.196 0 2.247 0.787 2.618 1.87-0.722-0.086-1.427-0.445-1.938-0.997-0.092-0.1-0.224-0.151-0.36-0.135-0.134 0.014-0.254 0.092-0.323 0.208-0.49 0.827-1.294 1.379-2.207 1.536 0-0.001-0-0.002-0-0.003 0.004-0.188-0.007-0.379-0.028-0.57-0.002-0.020-0.004-0.039-0.006-0.058-0.028-0.217-0.093-0.488-0.105-0.531 0.488-0.787 1.394-1.32 2.351-1.32zM20.139 7.253c1.086-0.12 2.067-0.669 2.742-1.538 0.665 0.549 1.508 0.882 2.341 0.922-0.006 1.564-1.275 4.3-2.778 4.3-1.159 0-2.148-1.669-2.517-2.826 0.094-0.298 0.162-0.584 0.213-0.858zM20.226 10.507l-0.768 0.428-0.775-0.439c0.287-0.361 0.551-0.779 0.777-1.233 0.217 0.459 0.477 0.882 0.766 1.244zM19.068 7.969c-0.414 1.245-1.477 3.046-2.772 3.046-1.51 0-2.795-2.5-3.040-4.098 0.065-0.016 2.105 0.11 3.509-1.746 0.712 0.6 1.674 0.998 2.609 1.037 0.011 0.564-0.125 1.227-0.305 1.761zM16.321 3.193c2.408 0 2.867 2.088 2.905 2.131-0.873-0.089-1.67-0.52-2.221-1.113-0.092-0.1-0.227-0.15-0.36-0.135s-0.254 0.093-0.323 0.21c-0.477 0.813-1.225 1.386-2.092 1.63-0.334 0.094-0.696 0.137-1.011 0.134 0.118-1.59 1.383-2.857 3.102-2.857zM13.125 9.255c0.223 0.449 0.488 0.878 0.791 1.255l-0.759 0.425-0.786-0.445c0.298-0.383 0.551-0.811 0.753-1.235zM10.131 3.888c0.974 0 1.867 0.498 2.365 1.321-0.025 0.087-0.092 0.435-0.101 0.478-0.598-0.144-1.147-0.465-1.578-0.927-0.093-0.099-0.224-0.149-0.36-0.134-0.134 0.015-0.254 0.093-0.323 0.21-0.575 0.977-1.63 1.584-2.753 1.584 0.137-1.42 1.315-2.531 2.75-2.531zM7.419 7.282c1.235-0.012 2.4-0.598 3.156-1.567 0.516 0.428 1.129 0.71 1.781 0.839 0.025 0.502 0.155 1.111 0.303 1.561-0.237 0.733-0.692 1.606-1.257 2.187-0.004 0.004-0.008 0.005-0.012 0.009-0.353 0.375-0.856 0.627-1.251 0.627-1.381 0-2.461-2.189-2.721-3.655zM4.914 13.287c0-0.066 0.029-0.121 0.058-0.141l3.566-1.993c0.214 0.179 0.263 0.2 0.306 0.232l-0 0c0.42 0.281 0.804 0.421 1.329 0.421 0.559 0 1.068-0.239 1.516-0.606 0.025-0.020 0.052-0.039 0.076-0.059l0.509 0.288-2.12 1.188c-0.317 0.206-0.506 0.555-0.506 0.935v2.718c0 0.133 0.060 0.258 0.164 0.34 0.274 0.217 0.63 0.47 0.938 0.664-2.109 0.145-4.161-0.461-5.838-1.728v-2.258z"></path>
<path d="M29.412 20.463c-0.529-0.335-1.179-0.369-1.739-0.096l-5.302 2.58c-0.018-1-0.828-1.808-1.825-1.808l-3.040 0.001c-1.499-1.313-3.415-2.116-5.157-2.159-1.718-0.041-3.26-0.053-3.979-0.056v-0.874h-6.041v10.051h6.041v-1.204c1.657 0.957 6.012 3.356 8.079 3.356 0.047 0 0.093-0.001 0.137-0.004 3.635-0.205 12.209-6.282 12.775-6.686 0.553-0.323 0.896-0.922 0.896-1.567 0-0.628-0.315-1.201-0.843-1.535zM7.509 27.237h-4.322v-8.32h4.322v8.32zM28.916 22.823c-0.013 0.007-0.026 0.015-0.038 0.024-0.089 0.063-8.908 6.346-12.342 6.54-0.034 0.002-0.068 0.003-0.105 0.003-1.813 0-6.233-2.402-8.064-3.492v-6.106c0.716 0.003 2.25 0.015 3.959 0.056 1.591 0.038 3.358 0.804 4.727 2.047l0.123 0.112 3.368-0.001c0.535 0 0.97 0.438 0.97 0.976s-0.435 0.977-0.969 0.977h-6.188v0.866h6.188c0.593 0 1.116-0.29 1.45-0.733l6.051-2.944c0.297-0.146 0.628-0.127 0.909 0.050s0.44 0.469 0.44 0.801c0 0.341-0.183 0.657-0.479 0.825z"></path>
<path d="M16.721 12.938h-0.859v0.803h0.859v-0.803z"></path>
<path d="M16.721 14.539h-0.859v0.803h0.859v-0.803z"></path>
<path d="M16.721 16.139h-0.859v0.802h0.859v-0.802z"></path>
</symbol>
<symbol id="icon-open-book" viewBox="0 0 32 32">
<path d="M14.717 9.194h-8.443v0.636h8.443v-0.636z"></path>
<path d="M14.717 11.566h-7.179v0.636h7.179v-0.636z"></path>
<path d="M14.717 13.939h-8.443v0.636h8.443v-0.636z"></path>
<path d="M14.717 16.311h-7.179v0.636h7.179v-0.636z"></path>
<path d="M14.717 18.683h-8.443v0.636h8.443v-0.636z"></path>
<path d="M14.717 21.055h-7.179v0.636h7.179v-0.636z"></path>
<path d="M26.308 9.194h-8.443v0.636h8.443v-0.636z"></path>
<path d="M25.043 11.566h-7.179v0.636h7.179v-0.636z"></path>
<path d="M26.308 13.939h-8.443v0.636h8.443v-0.636z"></path>
<path d="M25.043 16.311h-7.179v0.636h7.179v-0.636z"></path>
<path d="M26.308 18.683h-8.443v0.636h8.443v-0.636z"></path>
<path d="M25.043 21.055h-7.179v0.636h7.179v-0.636z"></path>
<path d="M29.357 8.47h-1.159v-1.752c0-0.176-0.142-0.318-0.316-0.318h-9.449c-0.922 0-1.721 0.502-2.141 1.253-0.419-0.751-1.219-1.253-2.141-1.253h-9.449c-0.175 0-0.316 0.143-0.316 0.318v1.752h-1.159c-0.175 0-0.316 0.143-0.316 0.318v17.076c0 0.176 0.142 0.318 0.316 0.318 3.174 0 22.946 0 26.131 0 0.174 0 0.316-0.142 0.316-0.318v-17.076c0-0.176-0.142-0.318-0.316-0.318zM18.432 7.036h9.133c0 2.849 0 10.353 0 17.038h-9.808c-0.435 0-0.869 0.185-1.151 0.424v-15.629c0-1.016 0.808-1.832 1.825-1.832zM5.016 7.036h9.133c0.988 0 1.788 0.774 1.821 1.762 0 0.014 0.002 0.057 0.004 0.070v15.628c-0.28-0.238-0.71-0.423-1.147-0.423h-9.812c0-6.683 0-14.19 0-17.038zM3.541 9.106h0.843v15.286c0 0.176 0.142 0.318 0.316 0.318h10.128c0.482 0 0.948 0.318 1.097 0.835h-12.384v-16.439zM29.041 25.546h-12.383c0.15-0.52 0.611-0.835 1.101-0.835h10.124c0.174 0 0.316-0.142 0.316-0.318v-15.286h0.843v16.439z"></path>
</symbol>
<symbol id="icon-mobile-learning-1" viewBox="0 0 32 32">
<path d="M28.090 2.327h-13.424c-0.874 0-1.585 0.707-1.585 1.576v5.526l-9.973 4.162c-0.113 0.047-0.19 0.153-0.198 0.275s0.052 0.238 0.157 0.3l1.272 0.757v8.066c-0.65 0.148-1.138 0.726-1.138 1.419v0.778c0 0.178 0.145 0.323 0.325 0.323h2.277c0.179 0 0.325-0.145 0.325-0.323v-0.778c0-0.692-0.488-1.27-1.139-1.418v-7.681l1.006 0.599c-0.031 0.231-0.004-0.402-0.014 3.755 0 1.367 3.52 2.099 7.102 2.141v6.295c0 0.325 0.1 0.628 0.271 0.879 0.285 0.419 0.767 0.695 1.313 0.695h13.424c0.873 0 1.583-0.706 1.583-1.574 0 0.043-0.002-1.333 0-24.195 0-0.857-0.713-1.576-1.582-1.576zM5.478 24.408v0.455h-1.628v-0.455c0-0.447 0.364-0.812 0.812-0.812 0.45 0 0.816 0.364 0.816 0.812zM28.090 29.025h-13.424c-0.322 0-0.607-0.162-0.775-0.408-0.101-0.148-0.16-0.327-0.16-0.519v-2.182h15.29v2.183c0 0.506-0.424 0.926-0.931 0.926zM29.021 25.27h-15.291v-3.464c1.749-0.020 7.106-0.403 7.106-2.143-0.002-2.612 0.005-3.671-0.008-3.76l2.916-1.737c0.105-0.063 0.166-0.179 0.157-0.3s-0.085-0.228-0.198-0.275l-9.973-4.162v-2.697h15.291v18.539zM13.406 17.519c-1.801 0-5.27 0.231-6.777 1.21 0.010-2.993-0.104-2.798 0.266-3.052 0.936-0.685 3.613-1.164 6.511-1.164 1.264 0 6.781 0.345 6.781 1.507v2.709c-1.521-0.988-4.972-1.21-6.781-1.21zM13.731 3.903c0-0.512 0.419-0.929 0.934-0.929h13.424c0.515 0 0.932 0.422 0.932 0.928v2.182h-15.29v-2.182zM13.406 9.994l9.455 3.946-2.343 1.394c-1.246-1.228-5.366-1.466-7.112-1.466-1.749 0-5.869 0.239-7.112 1.467l-2.343-1.394 9.455-3.946zM6.629 19.664c0-0.523 2.328-1.498 6.777-1.498 4.452 0 6.781 0.976 6.781 1.498s-2.329 1.499-6.781 1.499c-4.449 0-6.777-0.976-6.777-1.499z"></path>
<path d="M21.377 26.403c-0.592 0-1.074 0.479-1.074 1.068s0.482 1.069 1.074 1.069c0.592 0 1.074-0.479 1.074-1.069s-0.482-1.068-1.074-1.068zM21.377 27.894c-0.234 0-0.425-0.19-0.425-0.423s0.191-0.422 0.425-0.422c0.234 0 0.425 0.189 0.425 0.422s-0.191 0.423-0.425 0.423z"></path>
<path d="M22.616 4.207h-2.478v0.646h2.478v-0.646z"></path>
</symbol>
<symbol id="icon-study-program" viewBox="0 0 32 32">
<path d="M29.071 6.087c0-0.001-0.001-0.001-0.001-0.002-0.006-0.014-0.013-0.027-0.021-0.039-0.001-0.001-0.002-0.002-0.002-0.003-0.009-0.013-0.018-0.025-0.030-0.037l-4.231-4.188c-0.011-0.011-0.023-0.020-0.036-0.028-0.002-0.002-0.006-0.003-0.008-0.005-0.010-0.006-0.021-0.012-0.032-0.017-0.003-0.002-0.006-0.003-0.009-0.004-0.028-0.011-0.057-0.017-0.087-0.018-0.002 0-0.003-0-0.005-0h-18.639c-0.138 0-0.25 0.111-0.25 0.248v25.546c0 0.016 0.002 0.032 0.005 0.049 0.002 0.007 0.004 0.013 0.006 0.020 0.003 0.009 0.005 0.018 0.008 0.026s0.008 0.015 0.012 0.022c0.004 0.006 0.007 0.014 0.011 0.020 0.009 0.012 0.018 0.024 0.029 0.035 0.001 0.001 0.001 0.002 0.002 0.003l1.906 1.886c0.098 0.097 0.256 0.097 0.354 0l1.729-1.711 1.729 1.711c0.049 0.049 0.113 0.073 0.177 0.073s0.128-0.024 0.177-0.073l1.729-1.711 1.729 1.711c0.098 0.097 0.256 0.097 0.354 0l1.729-1.711 1.729 1.711c0.098 0.097 0.256 0.097 0.353 0l1.73-1.711 1.729 1.711c0.049 0.049 0.113 0.073 0.177 0.073s0.128-0.024 0.177-0.073l1.729-1.711 1.73 1.711c0.097 0.097 0.256 0.097 0.353 0l1.906-1.886c0.004-0.004 0.006-0.008 0.010-0.012 0.007-0.008 0.015-0.016 0.021-0.025s0.010-0.018 0.014-0.026c0.003-0.006 0.006-0.011 0.008-0.016 0.005-0.011 0.008-0.023 0.011-0.034 0.001-0.004 0.003-0.008 0.004-0.012 0.003-0.017 0.005-0.033 0.005-0.051v-21.356c-0.001-0.032-0.007-0.065-0.020-0.095zM24.859 2.591l3.377 3.343h-3.377v-3.343zM28.59 27.436l-1.655 1.639-1.73-1.711c-0.097-0.096-0.256-0.096-0.353 0l-1.729 1.711-1.729-1.711c-0.098-0.096-0.256-0.096-0.354 0l-1.73 1.711-1.728-1.71c0-0-0-0.001-0-0.001-0.049-0.048-0.113-0.072-0.177-0.072s-0.128 0.024-0.177 0.072c-0 0-0 0-0 0l-1.728 1.711-1.729-1.711c-0.098-0.096-0.256-0.096-0.354 0l-1.729 1.711-1.729-1.711c-0.098-0.096-0.256-0.096-0.354 0l-1.729 1.711-1.655-1.639v-25.196h18.138v3.941c0 0.137 0.112 0.248 0.25 0.248h3.98l0 21.007z"></path>
<path d="M8.085 4.583h8.19c0.138 0 0.25-0.111 0.25-0.248s-0.112-0.248-0.25-0.248h-8.19c-0.138 0-0.25 0.111-0.25 0.248s0.112 0.248 0.25 0.248z"></path>
<path d="M8.085 6.114h13.134c0.138 0 0.25-0.111 0.25-0.248s-0.112-0.248-0.25-0.248h-13.134c-0.138 0-0.25 0.111-0.25 0.248s0.112 0.248 0.25 0.248z"></path>
<path d="M7.835 7.488v8.017c0 0.137 0.112 0.248 0.25 0.248h18.639c0.138 0 0.25-0.111 0.25-0.248v-8.017c0-0.137-0.112-0.248-0.25-0.248h-18.639c-0.138 0-0.25 0.111-0.25 0.248zM13.363 7.736h13.111v2.131h-13.111v-2.131zM13.363 10.362h13.111v2.13h-13.111v-2.13zM13.363 12.987h13.111v2.271h-13.111v-2.271zM8.336 7.736h4.527v2.131h-4.527v-2.131zM8.336 10.362h4.527v2.13h-4.527v-2.13zM8.336 12.987h4.527v2.271h-4.527v-2.271z"></path>
<path d="M26.725 16.867h-18.639c-0.138 0-0.25 0.111-0.25 0.248v8.017c0 0.137 0.112 0.247 0.25 0.247s0.25-0.111 0.25-0.247v-2.518h4.527v2.518c0 0.137 0.112 0.247 0.25 0.247s0.25-0.111 0.25-0.247v-2.518h13.111v2.518c0 0.137 0.112 0.247 0.25 0.247s0.25-0.111 0.25-0.247v-8.017c0.001-0.137-0.111-0.248-0.249-0.248zM12.863 22.118h-4.527v-2.13h4.527v2.13zM12.863 19.493h-4.527v-2.13h4.527v2.13zM26.474 22.118h-13.111v-2.13h13.111v2.13zM26.474 19.493h-13.111v-2.13h13.111v2.13z"></path>
<path d="M4.535 1.745c-0.138 0-0.25 0.111-0.25 0.248v25.546c0 0.136 0.112 0.247 0.25 0.247s0.25-0.111 0.25-0.247v-25.546c0-0.137-0.112-0.248-0.25-0.248z"></path>
<path d="M3.159 1.745c-0.138 0-0.25 0.111-0.25 0.248v25.546c0 0.136 0.112 0.247 0.25 0.247s0.25-0.111 0.25-0.247v-25.546c0-0.137-0.112-0.248-0.25-0.248z"></path>
</symbol>
<symbol id="icon-insurance" viewBox="0 0 32 32">
<path d="M2.542 13.742c0 0.357-0.542 0.357-0.542 0 0-7.588 6.154-13.742 13.742-13.742 7.591 0 13.742 6.154 13.742 13.742 0 0.357-0.539 0.357-0.539 0 0-5.129-8.428-5.132-8.428 0 0 0.357-0.555 0.357-0.555 0 0-5.116-8.441-5.116-8.441 0 0 0.357-0.555 0.357-0.555 0 0-5.106-8.425-5.142-8.425 0zM11.015 11.75c0.146-2.952 0.61-5.599 1.285-7.62 0.539-1.606 1.22-2.826 1.992-3.51-5.794 0.633-10.485 5.025-11.533 10.722 1.995-2.878 6.602-2.647 8.256 0.409zM19.921 11.617c-0.149-2.839-0.6-5.379-1.249-7.316-1.674-5.012-4.185-5.012-5.859 0-0.649 1.937-1.097 4.477-1.249 7.316 1.8-3.059 6.556-3.059 8.357 0zM28.725 11.341c-1.045-5.697-5.736-10.089-11.533-10.722 0.775 0.684 1.453 1.904 1.992 3.51 0.675 2.021 1.139 4.668 1.285 7.62 1.664-3.072 6.284-3.254 8.256-0.409z"></path>
<path d="M13.938 20.030v-2.791c-0.503 0.334-0.899 0.85-0.899 1.48 0 0.613 0.402 1.019 0.899 1.311zM14.48 20.896c-0.963-0.441-1.979-0.957-1.979-2.177 0-1.259 0.957-1.888 1.979-2.359v4.536z"></path>
<path d="M17.546 24.24v2.822c0.509-0.337 0.908-0.856 0.908-1.486 0-0.62-0.409-1.038-0.908-1.337zM17.007 23.371c0.967 0.448 1.989 0.98 1.989 2.206 0 1.262-0.963 1.891-1.989 2.358v-4.564z"></path>
<path d="M17.546 14.063c2.219 0.513 4.5 2.174 4.5 4.655 0 2.125-3.591 2.047-3.591 0 0-0.633-0.399-1.152-0.908-1.486v3.971c2.054 0.672 4.506 1.875 4.506 4.373 0 2.485-2.281 4.143-4.506 4.652-0.010 2.365-3.601 2.362-3.607-0.003-1.265-0.292-2.365-0.882-3.16-1.664-0.834-0.824-1.327-1.859-1.327-2.985 0-2.093 3.588-2.093 3.588 0 0 0.626 0.396 1.142 0.899 1.476v-3.968c-2.037-0.659-4.503-1.898-4.503-4.373 0-2.485 2.281-4.143 4.503-4.652 0.010-2.365 3.601-2.362 3.607 0.003zM14.48 14.070v0.431c-2.112 0.419-4.506 1.771-4.506 4.211 0 2.346 2.628 3.397 4.506 3.977v5.243c-1.015-0.464-1.979-1.090-1.979-2.355 0-1.382-2.511-1.382-2.511 0 0 0.976 0.435 1.878 1.168 2.599 0.931 0.921 2.060 1.359 3.322 1.609v0.435c0 1.664 2.527 1.664 2.527 0v-0.431c2.118-0.422 4.503-1.775 4.503-4.211 0-2.368-2.621-3.387-4.503-3.981v-5.239c1.019 0.464 1.989 1.090 1.989 2.362 0 1.346 2.508 1.402 2.508 0 0-2.436-2.381-3.792-4.496-4.214v-0.435c0-1.664-2.527-1.664-2.527 0z"></path>
</symbol>
<symbol id="icon-mobile-learning" viewBox="0 0 32 32">
<path d="M29.547 0.208h-15.418c-1.004 0-1.82 0.816-1.82 1.82v6.382l-11.454 4.808c-0.13 0.054-0.218 0.177-0.228 0.317s0.059 0.274 0.18 0.347l1.461 0.874v9.317c-0.747 0.17-1.308 0.839-1.308 1.639v0.898c0 0.206 0.167 0.373 0.373 0.373h2.616c0.206 0 0.373-0.167 0.373-0.373v-0.898c0-0.799-0.561-1.467-1.308-1.638v-8.871l1.155 0.691c-0.035 0.266-0.005-0.464-0.016 4.337 0 1.578 4.043 2.424 8.157 2.472v7.271c0 0.376 0.115 0.725 0.312 1.015 0.327 0.484 0.881 0.803 1.508 0.803h15.418c1.003 0 1.818-0.816 1.818-1.818 0 0.050-0.002-1.54 0-27.945 0-0.99-0.819-1.82-1.817-1.82zM3.576 25.712v0.525h-1.87v-0.525c0-0.517 0.418-0.937 0.933-0.937 0.517 0 0.937 0.421 0.937 0.937zM29.547 31.044h-15.418c-0.37 0-0.697-0.187-0.89-0.472-0.116-0.171-0.183-0.377-0.183-0.599v-2.52h17.561v2.521c0 0.584-0.487 1.070-1.070 1.070zM30.616 26.707h-17.562v-4.001c2.009-0.023 8.161-0.465 8.161-2.475-0.002-3.016 0.005-4.24-0.009-4.343l3.35-2.006c0.121-0.072 0.19-0.206 0.18-0.347s-0.098-0.263-0.228-0.317l-11.454-4.808v-3.115h17.562v21.412zM12.682 17.755c-2.069 0-6.053 0.267-7.784 1.397 0.011-3.457-0.12-3.232 0.306-3.525 1.075-0.792 4.15-1.344 7.478-1.344 1.451 0 7.788 0.399 7.788 1.741v3.129c-1.747-1.141-5.71-1.398-7.788-1.398zM13.055 2.028c0-0.591 0.481-1.072 1.072-1.072h15.418c0.592 0 1.070 0.488 1.070 1.072v2.521h-17.561v-2.52zM12.682 9.063l10.859 4.558-2.691 1.61c-1.43-1.419-6.162-1.694-8.168-1.694-2.008 0-6.741 0.276-8.168 1.694l-2.692-1.611 10.86-4.558zM4.898 20.231c0-0.604 2.673-1.731 7.784-1.731 5.113 0 7.788 1.127 7.788 1.731s-2.675 1.731-7.788 1.731c-5.11 0-7.784-1.127-7.784-1.731z"></path>
<path d="M21.837 28.016c-0.68 0-1.234 0.553-1.234 1.234s0.553 1.234 1.234 1.234c0.68 0 1.234-0.554 1.234-1.234s-0.553-1.234-1.234-1.234zM21.837 29.737c-0.269 0-0.488-0.219-0.488-0.488s0.219-0.488 0.488-0.488c0.269 0 0.488 0.219 0.488 0.488s-0.219 0.488-0.488 0.488z"></path>
<path d="M23.26 2.379h-2.846v0.746h2.846v-0.746z"></path>
</symbol>
<symbol id="icon-female-student" viewBox="0 0 32 32">
<path d="M2.724 31.033c3.441 0 23.348 0 26.785 0 0.133-3.055-0.086-8.122-1.964-10.535l-0.068-0.087-4.104-2.061c0.089-0.301 0.133-0.576 0.151-0.778 0.020-0.243-0.013-0.471-0.1-0.678-0.677-1.62-2.11-2.472-2.898-2.836 0.24-0.484 0.395-1.003 0.47-1.534 0.446-0.126 0.805-0.479 0.923-0.951l0.479-1.946c0.085-0.343 0.032-0.699-0.151-1.002-0.078-0.131-0.18-0.24-0.294-0.334 1.351-3.068-0.911-5.96-1.035-6.113-2.45-2.649-5.544-2.153-5.708-2.124-4.466 0.935-6.19 4.358-5.217 8.372-0.288 0.319-0.409 0.764-0.302 1.2l0.481 1.948c0.117 0.468 0.473 0.82 0.916 0.948 0.137 0.972 0.548 1.851 1.152 2.559v1.543c-6.409 3.282-2.348 1.188-7.484 3.786-0.010 0.048-2.41 2.599-2.053 10.159l0.022 0.462zM28.579 30.063h-4.408v-1.852l2.916-6.674c1.461 2.424 1.515 7.053 1.493 8.526zM22.562 17.49c-0.17 1.954-1.242 1.364-1.903 2.869-0.52-0.572-0.677-1.258-0.537-1.993 0.253-1.348-0.57-1.749-0.367-3.166l0.031-0.032v-0.005c0.017-0.020 0.18-0.213 0.227-0.274 1.744 0.76 2.584 2.174 2.55 2.6zM13.206 15.954c0.81 0.562 1.787 0.893 2.838 0.893 0.99 0 1.93-0.288 2.737-0.819 0.112 1.114 0.547 1.337 0.393 2.157-0.029 0.152-0.045 0.302-0.054 0.45l-3.002 3.384-3.838-4.327 0.926-0.484v-1.254zM11.999 11.813v-1.876c0-0.691 0-3.431 0-3.296 0.467-0.864 1.104-1.491 1.896-1.866 2.12 1.2 4.56 2.99 6.197 4.791-0.002 2.294 0.006 2.301-0.009 2.489l-0.001 0.012c-0.128 2.084-1.841 3.811-4.038 3.811-2.136 0-3.909-1.677-4.037-3.831-0.007-0.077-0.008-0.155-0.008-0.233zM11.401 18.16l4.716 5.317 3.166-3.569c0.072 0.208 0.174 0.405 0.29 0.595l-3.456 4.322-5.154-6.446 0.438-0.22zM21.057 11.033v-1.498c0.042-0.049 0.402-0.461 0.36-0.413 0.020 0.758 0.102-0.137-0.36 1.911zM15.389 1.008c0.192 0.012 2.765-0.391 4.799 1.804 0.080 0.1 1.736 2.234 1.071 4.567-0.228-1.038-0.625-2.369-1.252-3.004l-0.686 0.683c0.619 0.627 1.026 2.537 1.181 3.527-2.84-2.972-6.504-4.853-6.555-4.885-0.184 0.114-1.734 0.409-2.86 2.598l-0.054 0.105v1.607c-0.048 0.001-0.19 0.002-0.142 0.002-0.715-3.454 0.655-6.198 4.497-7.004zM10.79 9.009l0.244 0.987v1.038l-0.405-1.639c-0.059-0.244 0.122-0.337 0.161-0.386zM10.080 18.824l6.037 7.551 4.085-5.109c0.444 0.398 0.658 0.454 1.6 0.939l-0.318-1.078c-0.081-0.274 0.239-0.713 0.431-0.914 0.43-0.233 0.789-0.566 1.058-0.978l3.333 1.674-3.101 7.1v2.055h-14.176v-2.055l-3.103-7.099 4.153-2.085zM5.147 21.539l2.916 6.673v1.852h-4.408c-0.022-1.473 0.033-6.099 1.492-8.524z"></path>
</symbol>
</defs>
</svg>
